<?xml version="1.0" encoding="UTF-8"?>
<svg version="1.1" xmlns="http://www.w3.org/2000/svg" width="1193" height="1071">
<path d="M0 0 C393.69 0 787.38 0 1193 0 C1193 353.43 1193 706.86 1193 1071 C799.31 1071 405.62 1071 0 1071 C0 717.57 0 364.14 0 0 Z " fill="#FFFFFF" transform="translate(0,0)"/>
<path d="M0 0 C35.49645239 -1.04401331 70.01965414 12.97471699 95.828125 36.88671875 C96.62992188 37.6446875 97.43171875 38.40265625 98.2578125 39.18359375 C99.08023438 39.9415625 99.90265625 40.69953125 100.75 41.48046875 C124.21918339 63.85296132 138.59534589 97.49049609 139.49609375 129.7890625 C139.98037502 162.83580589 132.91039742 192.15157972 113.2578125 219.18359375 C112.66742188 219.99828125 112.07703125 220.81296875 111.46875 221.65234375 C89.60916172 250.30235732 58.33465582 267.84269175 23.01879883 273.72290039 C19.07468763 274.20602521 15.20779217 274.32790391 11.2421875 274.31640625 C10.50454163 274.31736298 9.76689575 274.3183197 9.00689697 274.31930542 C7.46065179 274.31998135 5.91440368 274.31816834 4.36816406 274.31396484 C2.00058684 274.30857731 -0.36680335 274.31394543 -2.734375 274.3203125 C-4.24218792 274.31965221 -5.75000072 274.31837208 -7.2578125 274.31640625 C-7.96407776 274.31843048 -8.67034302 274.32045471 -9.39801025 274.32254028 C-12.45768862 274.30788028 -14.81519073 274.15925934 -17.7421875 273.18359375 C-17.498172 274.05353973 -17.25415649 274.92348572 -17.00274658 275.8197937 C-10.23238868 299.99148292 -3.68673005 324.21812239 2.75605774 348.47896957 C4.83983314 356.32235356 6.92882756 364.16435076 9.01702118 372.00655937 C9.5527186 374.01844944 10.08834783 376.03035767 10.623909 378.04228401 C16.55593806 400.32641248 22.52732864 422.5999276 28.5078125 444.87109375 C28.74287003 445.74648048 28.97792755 446.62186722 29.22010803 447.52378082 C29.91397389 450.10781819 30.6078626 452.69184942 31.30175781 455.27587891 C31.63471737 456.51583508 31.63471737 456.51583508 31.97440338 457.78084087 C33.18967856 462.306455 34.40518318 466.83200715 35.62155914 471.35732555 C35.9788884 472.68824786 36.3355516 474.01934921 36.69149017 475.35064411 C37.58686019 478.69841598 38.49313196 482.04265519 39.41687012 485.38272095 C39.60374264 486.06522573 39.79061516 486.7477305 39.98315048 487.45091724 C40.49755571 489.32903254 41.01665501 491.20586036 41.53607178 493.08259583 C42.2578125 496.18359375 42.2578125 496.18359375 42.2578125 500.18359375 C42.95003906 500.14878906 43.64226562 500.11398437 44.35546875 500.078125 C62.32079452 499.58106065 79.73406238 505.05068883 93.2578125 517.18359375 C93.98097656 517.81523438 94.70414063 518.446875 95.44921875 519.09765625 C108.40339361 531.15314893 115.33119557 547.23876852 116.49609375 564.76953125 C116.88568493 584.65918644 111.4220904 602.49333472 97.53686523 617.10302734 C83.90691907 630.739986 66.91371067 637.70050613 47.7578125 638.43359375 C27.31090642 638.15048274 9.46134108 629.78460914 -4.7421875 615.18359375 C-17.45514265 599.78737143 -22.77041289 581.54172493 -21.52734375 561.765625 C-19.30316115 544.37463537 -11.18422589 526.87185361 2.89697266 515.90722656 C5.72387466 513.84858137 8.6091368 511.91255094 11.53515625 509.99609375 C14.26475259 508.3078308 14.26475259 508.3078308 16.2578125 506.18359375 C16.03104828 505.33838165 15.80428406 504.49316956 15.57064819 503.62234497 C15.06135081 501.72405474 14.5520535 499.8257645 14.04275703 497.92747402 C13.00218509 494.04897314 11.96160723 490.17047384 10.92102051 486.29197693 C8.74334613 478.17527878 6.5657175 470.05856837 4.3882618 461.94181156 C3.10522201 457.15911723 1.82215022 452.37643148 0.5390625 447.59375 C0.27855984 446.62273031 0.01805717 445.65171062 -0.25033951 444.6512661 C-3.73522525 431.66163226 -7.22155722 418.67238766 -10.70934486 405.68353271 C-12.53605477 398.88042966 -14.36230792 392.07720399 -16.1885643 385.27397919 C-16.8672216 382.74596673 -17.54598434 380.2179826 -18.22476196 377.69000244 C-23.10579808 359.510327 -27.97538028 341.32768855 -32.81491089 323.13691521 C-33.52715374 320.45976698 -34.23962546 317.78267976 -34.95214844 315.10560608 C-36.9796773 307.48700097 -39.00623098 299.86814498 -41.02731228 292.24782658 C-41.84077135 289.18231391 -42.65593529 286.11725641 -43.47152138 283.05230904 C-43.84911662 281.6316766 -44.22593034 280.21083619 -44.60191917 278.78977776 C-45.11325858 276.8573765 -45.62746951 274.92573575 -46.1418457 272.99414062 C-46.42856644 271.9135437 -46.71528717 270.83294678 -47.01069641 269.71960449 C-47.64874337 267.21897249 -47.64874337 267.21897249 -48.7421875 265.18359375 C-50.44727855 264.21061207 -50.44727855 264.21061207 -52.5390625 263.3359375 C-53.32651855 262.98289551 -54.11397461 262.62985352 -54.92529297 262.26611328 C-55.77236816 261.88825684 -56.61944336 261.51040039 -57.4921875 261.12109375 C-89.55836617 246.32914079 -114.02712878 218.80486241 -126.4921875 185.93359375 C-130.96385115 173.65368859 -134.29332568 160.29409949 -134.7421875 147.18359375 C-134.76796875 146.55114746 -134.79375 145.91870117 -134.8203125 145.26708984 C-136.2285853 106.23152819 -123.12792937 70.88246897 -96.7421875 42.18359375 C-96.14019531 41.51070312 -95.53820312 40.8378125 -94.91796875 40.14453125 C-70.0911357 13.75429562 -35.21599447 2.35776601 0 0 Z " fill="#92278F" transform="translate(363.7421875,0.81640625)"/>
<path d="M0 0 C15.04029233 12.08610954 23.31990709 27.4863949 27.00292969 46.23632812 C27.43490366 51.07443661 27.3944224 55.88266497 27.31542969 60.73632812 C29.07667679 60.92912857 29.07667679 60.92912857 30.87350464 61.12582397 C34.81208021 61.62071295 38.55008213 62.46618758 42.38623047 63.50439453 C43.05094518 63.68268138 43.71565989 63.86096823 44.40051746 64.04465771 C46.60532062 64.63735691 48.80798542 65.23763486 51.01074219 65.83789062 C52.60098775 66.26690387 54.19136937 66.69541304 55.78187561 67.12345886 C59.20383802 68.04544326 62.62488776 68.97071508 66.04525757 69.89859009 C71.51840642 71.38326466 76.99350541 72.86065148 82.46899414 74.33666992 C88.21881164 75.8868917 93.96854935 77.43740216 99.71766663 78.99021912 C113.02776332 82.58470293 126.34319727 86.15877694 139.66308594 89.71679688 C141.02649329 90.08106026 141.02649329 90.08106026 142.41744423 90.4526825 C150.5807951 92.63357994 158.74449398 94.81317181 166.90872192 96.99078369 C172.23467573 98.41142651 177.56035972 99.83307631 182.88574219 101.25585938 C183.74763342 101.4861232 184.60952465 101.71638702 185.4975338 101.95362854 C197.09041538 105.05250927 208.67235097 108.18926288 220.24470329 111.36392784 C222.52217616 111.9883302 224.80001853 112.61136345 227.07801819 113.23384094 C227.80817863 113.43338347 228.53833906 113.63292601 229.29062557 113.83851528 C230.73290463 114.23264316 232.17519883 114.62671563 233.61750889 115.02073002 C237.72038371 116.14263094 241.8203584 117.2744289 245.91833115 118.41409779 C248.96639085 119.25898245 252.01817756 120.09021543 255.06933594 120.92382812 C256.68767838 121.37969551 256.68767838 121.37969551 258.3387146 121.84477234 C259.819077 122.24548698 259.819077 122.24548698 261.3293457 122.65429688 C262.17803726 122.88914795 263.02672882 123.12399902 263.90113831 123.3659668 C267.50841945 123.91933722 270.24717017 123.4159407 273.32324219 121.45898438 C274.37125 120.63720703 274.37125 120.63720703 275.44042969 119.79882812 C289.35472012 109.78958227 304.8634334 103.27847362 321.31542969 98.73632812 C321.99653809 98.54425781 322.67764648 98.3521875 323.37939453 98.15429688 C356.85434473 89.21627195 394.69493218 97.03779266 424.31542969 113.73632812 C433.42470246 119.13318438 441.45911294 125.68619277 449.31542969 132.73632812 C450.50265625 133.7959375 450.50265625 133.7959375 451.71386719 134.87695312 C474.75777436 156.67299529 490.0488281 189.87153135 491.44165039 221.61279297 C492.39522508 261.02115897 482.46586067 296.34668634 455.31542969 325.73632812 C454.84911133 326.24647461 454.38279297 326.75662109 453.90234375 327.28222656 C429.14526512 354.07832333 394.38747868 368.42492098 358.16308594 369.86132812 C320.17078807 370.55763599 285.97538953 356.48391471 258.21777344 330.91601562 C233.80867591 307.36518454 218.05503867 273.42782019 217.11230469 239.37304688 C216.67018223 206.05156427 225.06701297 176.99895552 244.31542969 149.73632812 C244.97542969 148.74632812 245.63542969 147.75632812 246.31542969 146.73632812 C245.46456787 146.5490918 244.61370605 146.36185547 243.73706055 146.16894531 C229.56609046 142.94580698 215.56820562 139.07721541 201.54928589 135.25827026 C193.37191573 133.0308166 185.19131142 130.81527955 177.01074219 128.59960938 C176.14797354 128.36585665 175.28520489 128.13210392 174.39629173 127.89126778 C149.58424955 121.17047647 124.74188767 114.56320425 99.9009161 107.95032692 C96.2896995 106.9889835 92.67851388 106.02752368 89.0673275 105.06606674 C87.30256721 104.59628353 85.53777796 104.12660912 83.77295876 103.65704727 C73.74335298 100.98845909 63.71664367 98.30951154 53.69482422 95.61181641 C52.74531796 95.35637715 51.79581171 95.1009379 50.81753254 94.83775806 C46.26019565 93.61162866 41.70330285 92.38389572 37.14720154 91.15318298 C35.51913115 90.71477055 33.89104467 90.27641784 32.26293945 89.83813477 C31.52837839 89.63903315 30.79381733 89.43993153 30.03699684 89.23479652 C26.48089813 88.27922397 22.93753615 87.40285619 19.31542969 86.73632812 C18.92871094 87.81140625 18.92871094 87.81140625 18.53417969 88.90820312 C12.5054115 102.89803701 -0.7183455 113.69825546 -14.50537109 119.50292969 C-32.68278896 126.58722245 -51.12007003 126.13474675 -69.33300781 119.20898438 C-85.75007804 111.99542321 -98.27877984 99.0991053 -105.55957031 82.79882812 C-112.04657284 65.71713636 -113.36548128 46.58351903 -105.95019531 29.54882812 C-102.40353937 21.95413805 -98.32992524 14.97866312 -92.68457031 8.73632812 C-92.15476562 8.12660156 -91.62496094 7.516875 -91.07910156 6.88867188 C-67.93684213 -18.12255862 -26.70497096 -20.0325985 0 0 Z " fill="#92278F" transform="translate(701.6845703125,302.263671875)"/>
<path d="M0 0 C15.28681224 11.70803914 24.90450751 26.94814965 27.92578125 45.95556641 C30.38025587 64.82007878 25.88847695 82.70437519 14.953125 98.33984375 C3.52671893 112.84752787 -12.34328555 122.7193232 -30.79296875 125.1171875 C-46.84238872 126.45252819 -61.308846 124.36341627 -75.33984375 116.09375 C-77.70754033 114.82828958 -77.70754033 114.82828958 -79.74666429 115.87784433 C-81.75816454 117.09610835 -83.29899341 118.33906641 -84.98696518 119.97011566 C-85.59755681 120.55575743 -86.20814844 121.1413992 -86.83724284 121.74478769 C-87.49872553 122.38890399 -88.16020822 123.0330203 -88.84173584 123.69665527 C-89.5516081 124.38082944 -90.26148036 125.06500361 -90.99286389 125.76991034 C-93.37612817 128.0701028 -95.75215139 130.37762486 -98.12792969 132.68554688 C-99.83274853 134.33527722 -101.53775495 135.98481373 -103.24293518 137.63417053 C-118.83812571 152.73787209 -134.32857799 167.94925422 -149.79069138 183.18903351 C-151.86294873 185.23096078 -153.93549643 187.27259285 -156.00830078 189.31396484 C-156.52341513 189.82129164 -157.03852948 190.32861844 -157.56925336 190.85131878 C-165.88435115 199.03709738 -174.26030021 207.15767669 -182.66184637 215.25459903 C-191.30945555 223.59125764 -199.88999957 231.99273711 -208.41294885 240.4568181 C-213.19180177 245.19911484 -217.99645393 249.90605356 -222.87633514 254.54460144 C-246.21901509 274.80301232 -246.21901509 274.80301232 -257.2379477 302.24460554 C-257.37482679 308.54104335 -256.50936308 314.59533016 -255.32123566 320.7731781 C-251.71757225 343.58491238 -266.23720221 372.46522502 -279.19262695 390.42553711 C-302.17127251 421.30571406 -334.73477767 441.76698951 -372.92871094 447.43408203 C-409.57230986 452.00431224 -444.96418479 442.52142831 -474.71484375 421.00390625 C-487.63793895 410.85277673 -498.97420092 398.97922544 -507.79296875 385.1171875 C-508.48777344 384.0446875 -509.18257812 382.9721875 -509.8984375 381.8671875 C-528.78140711 350.89473445 -533.45032021 312.62211655 -525.19091797 277.56152344 C-522.17855096 265.65195559 -517.83939238 254.7968089 -511.79296875 244.1171875 C-511.46538574 243.53356445 -511.13780273 242.94994141 -510.80029297 242.34863281 C-506.20982112 234.27470873 -500.85466592 227.13426085 -494.79296875 220.1171875 C-494.18453125 219.38628906 -493.57609375 218.65539062 -492.94921875 217.90234375 C-471.83149248 192.89703605 -439.18637382 178.01769837 -407.04614258 174.30029297 C-371.64737144 171.42359145 -335.78522696 179.46058022 -307.79296875 202.1171875 C-307.24012207 202.56465332 -306.68727539 203.01211914 -306.11767578 203.47314453 C-290.59499363 216.1411779 -278.68296336 230.6590565 -269.16796875 248.3046875 C-268.83724365 248.91594482 -268.50651855 249.52720215 -268.16577148 250.15698242 C-266.43922651 253.47647893 -265.44451518 256.45116848 -264.79296875 260.1171875 C-259.61604058 255.67802975 -254.64235247 251.11051247 -249.8326416 246.27711487 C-249.18060493 245.62593262 -248.52856826 244.97475037 -247.8567729 244.30383533 C-245.69575821 242.14445378 -243.53831191 239.98154359 -241.38085938 237.81860352 C-239.82326385 236.26072562 -238.26544751 234.70306848 -236.70742798 233.14561462 C-232.49505058 228.93352327 -228.28575614 224.71836328 -224.07702065 220.50263333 C-219.67191714 216.09126418 -215.26396775 211.68274056 -210.85632324 207.27391052 C-203.4641253 199.87896102 -196.07367378 192.48226999 -188.68457031 185.08422852 C-181.07702482 177.46749042 -173.46841963 169.85181345 -165.85839844 162.23754883 C-165.38855492 161.76744259 -164.91871141 161.29733635 -164.43463022 160.81298447 C-162.07732928 158.45437841 -159.7200065 156.0957942 -157.36267567 153.73721802 C-137.83627242 134.20037181 -118.31344116 114.65995945 -98.79296875 95.1171875 C-99.27652832 94.10470947 -99.76008789 93.09223145 -100.25830078 92.04907227 C-100.8976725 90.69817954 -101.53682081 89.34718106 -102.17578125 87.99609375 C-102.49393799 87.33146118 -102.81209473 86.66682861 -103.13989258 85.98205566 C-110.55487659 70.25052586 -111.69787479 52.39690689 -106.7890625 35.703125 C-100.41053991 18.06219454 -89.40988672 3.26165804 -72.421875 -5.2265625 C-48.47309681 -16.15689829 -22.04849884 -14.86346356 0 0 Z " fill="#92278F" transform="translate(759.79296875,622.8828125)"/>
<path d="M0 0 C14.17088196 12.03958131 24.35423972 27.82504161 26.03125 46.71386719 C27.20859923 66.4712589 22.91978722 84.93370945 9.83056641 100.21069336 C3.75318182 106.92606487 -3.06026958 112.2433638 -11.1875 116.25 C-9.38846394 126.2896351 -6.64834543 136.06930505 -4 145.91015625 C-3.46822176 147.89544972 -2.9367248 149.88081855 -2.40548706 151.86625671 C-0.96912393 157.23135711 0.47111534 162.59540997 1.91208649 167.95927429 C3.42521924 173.59432483 4.93484679 179.23031424 6.44482422 184.86621094 C8.96235335 194.26107346 11.48198909 203.65536876 14.00292969 213.04931641 C17.40095368 225.71220682 20.79308381 238.37666977 24.18323517 251.04166985 C26.49111064 259.66305487 28.79996858 268.28417687 31.10876465 276.9053154 C31.92628019 279.9581027 32.74366078 283.01092612 33.56103516 286.06375122 C35.10484683 291.82921324 36.64982168 297.59436289 38.1953125 303.359375 C38.43721565 304.26211088 38.6791188 305.16484676 38.92835236 306.09493828 C41.44645388 315.48939754 43.97773686 324.87992322 46.54980469 334.25976562 C46.76470236 335.04407581 46.97960003 335.828386 47.20100975 336.63646317 C48.20270752 340.29058969 49.20740329 343.94384483 50.21755981 347.59564209 C50.56197113 348.84830872 50.90638245 350.10097534 51.26123047 351.39160156 C51.7134346 353.02721039 51.7134346 353.02721039 52.17477417 354.69586182 C52.8125 357.25 52.8125 357.25 52.8125 359.25 C53.451875 359.32347656 54.09125 359.39695312 54.75 359.47265625 C67.64718895 362.74630498 79.82881367 371.74537831 89.8125 380.25 C91.11380859 381.34248047 91.11380859 381.34248047 92.44140625 382.45703125 C114.47644362 401.59544399 127.89404667 425.34214567 135.8125 453.25 C136.0074707 453.93545898 136.20244141 454.62091797 136.40332031 455.32714844 C145.23068665 488.42555262 137.66986928 525.94578374 121.1875 555.25390625 C102.66095285 586.99513988 72.7181365 609.70834239 37.20703125 619.18359375 C-0.80125921 628.68778973 -38.52363023 622.02249125 -72.0078125 602.28125 C-76.71599333 599.27356692 -80.98294901 595.92118949 -85.1875 592.25 C-86.04214844 591.50492188 -86.89679687 590.75984375 -87.77734375 589.9921875 C-90.27669106 587.77472147 -92.73704883 585.52125151 -95.1875 583.25 C-95.78046875 582.72277344 -96.3734375 582.19554687 -96.984375 581.65234375 C-121.48149927 558.84668759 -134.084361 522.99020515 -135.37109375 490.23046875 C-136.00337815 452.33059795 -122.16384072 417.72837403 -96.1875 390.25 C-95.42953125 389.42757813 -94.6715625 388.60515625 -93.890625 387.7578125 C-72.07399212 364.87173683 -38.88649607 350.04861317 -7.25 349.13647461 C-5.89582301 349.13662956 -4.54163806 349.14207389 -3.1875 349.15234375 C-2.4663501 349.1537587 -1.7452002 349.15517365 -1.00219727 349.15663147 C1.26941324 349.16216619 3.54092 349.17470577 5.8125 349.1875 C7.36588398 349.19252346 8.91926952 349.19708488 10.47265625 349.20117188 C14.25264328 349.21211411 18.03255414 349.2293324 21.8125 349.25 C21.58573578 348.4047879 21.35897156 347.55957581 21.12533569 346.68875122 C20.61604982 344.79050389 20.10676401 342.89225654 19.59747887 340.99400902 C18.556711 337.11477894 17.51593839 333.23555014 16.47515869 329.35632324 C14.29982512 321.24833218 12.12452776 313.1403314 9.94936943 305.03229332 C8.66939267 300.26110648 7.38939021 295.48992653 6.109375 290.71875 C5.71934988 289.26495375 5.71934988 289.26495375 5.32144547 287.78178787 C1.78991861 274.61840668 -1.74279359 261.45534424 -5.2766037 248.29257584 C-10.2781739 229.66259082 -15.27677655 211.03181226 -20.27090836 192.39983177 C-21.3317156 188.44222607 -22.39269157 184.48466578 -23.45410156 180.52722168 C-25.62455777 172.43461715 -27.79371489 164.34166974 -29.95815468 156.24745369 C-30.84090896 152.94632066 -31.72441424 149.64539398 -32.61004639 146.34503174 C-33.56268573 142.79314262 -34.512249 139.24044605 -35.4609375 135.6875 C-35.74098633 134.64604828 -36.02103516 133.60459656 -36.30957031 132.53158569 C-36.55980957 131.59174835 -36.81004883 130.65191101 -37.06787109 129.68359375 C-37.28575287 128.86947021 -37.50363464 128.05534668 -37.7281189 127.21655273 C-38.1875 125.25 -38.1875 125.25 -38.1875 123.25 C-39.09628906 123.29640625 -40.00507812 123.3428125 -40.94140625 123.390625 C-59.6617471 123.92823479 -76.32593499 118.01723093 -90.1875 105.25 C-103.31350139 92.4694197 -111.18393664 76.64877124 -111.42944336 58.24194336 C-111.48045728 38.90148233 -107.31908137 22.98369152 -94.1875 8.25 C-93.60613281 7.57582031 -93.02476562 6.90164063 -92.42578125 6.20703125 C-68.860603 -19.33426257 -26.94010164 -20.55736986 0 0 Z " fill="#92278F" transform="translate(825.1875,446.75)"/>
<path d="M0 0 C4.0543325 3.20519128 7.83334942 6.66078897 11.56201172 10.23486328 C12.37025391 10.97994141 13.17849609 11.72501953 14.01123047 12.49267578 C39.20536716 36.46072418 52.11342156 70.49022368 53.48779297 104.81396484 C54.24525247 135.31223014 45.21966252 164.89711132 27.38232422 189.68798828 C25.57864371 192.0713917 25.57864371 192.0713917 24.56201172 194.23486328 C25.56183578 194.50285736 26.56165985 194.77085144 27.59178162 195.04696655 C28.26755092 195.22810061 28.94332022 195.40923466 29.63956738 195.59585762 C31.20234264 196.01474581 32.76511794 196.4336339 34.32789326 196.8525219 C38.91873041 198.08305507 43.50956702 199.31359025 48.10040283 200.54412842 C57.66777925 203.10858779 67.23515968 205.67303224 76.80255604 208.23741722 C82.41508537 209.74176513 88.02761177 211.24612402 93.64013672 212.75048828 C94.78164877 213.05645557 95.92316082 213.36242287 97.09926414 213.6776619 C113.14435642 217.97835935 129.18930479 222.27959328 145.23414421 226.58123398 C151.76115183 228.33110913 158.28818772 230.08087881 164.81522465 231.83064461 C170.00045151 233.22070922 175.18565878 234.61084683 180.37081909 236.00115967 C182.36285327 236.53528107 184.35488817 237.06939976 186.34692383 237.60351562 C187.79815911 237.99263154 187.79815911 237.99263154 189.27871227 238.38960838 C196.56190839 240.34226907 203.84560631 242.29305214 211.12949085 244.24314308 C215.9723854 245.54006618 220.81442024 246.84013063 225.65561581 248.14338112 C228.51423411 248.91258372 231.37335093 249.67992066 234.232584 250.44683456 C236.1481718 250.96137197 238.06307285 251.478464 239.97795105 251.99563599 C241.09470718 252.29484955 242.21146332 252.59406311 243.36206055 252.90234375 C244.32638504 253.16191864 245.29070953 253.42149353 246.28425598 253.68893433 C248.49578681 254.31255571 248.49578681 254.31255571 250.56201172 254.23486328 C251.80652285 252.34907429 251.80652285 252.34907429 253.06201172 249.92236328 C262.50572527 233.7396891 277.33811717 223.76287387 295.06201172 218.35986328 C313.74294486 214.22778933 333.24441046 217.30640731 349.56201172 227.23486328 C365.24930286 237.97070855 375.8833035 253.00943347 380.09472656 271.58447266 C383.42010952 290.44568343 379.78399012 309.17058379 369.56201172 325.23486328 C359.39153844 339.07938662 344.10290953 350.16494206 327.14404297 353.79736328 C306.25565097 356.34861727 286.48433935 353.54097791 269.37451172 340.48486328 C255.34601999 328.56625671 245.99987693 313.64977477 243.56201172 295.23486328 C243.21265376 290.55722551 243.34814322 285.91634522 243.56201172 281.23486328 C242.57084351 281.00856232 241.57967529 280.78226135 240.55847168 280.54910278 C229.04346787 277.89434904 217.62939161 274.91916342 206.21826172 271.85205078 C204.24263826 271.32309255 202.26695389 270.79436177 200.29121399 270.26583862 C194.98374706 268.84537625 189.67712867 267.42176816 184.37067032 265.99754333 C178.78740299 264.49960848 173.2033497 263.00460913 167.61938477 261.50927734 C158.30603388 259.01483798 148.99316685 256.51859973 139.68066406 254.02099609 C126.98301437 250.61550102 114.28455945 247.21301746 101.58586502 243.81142044 C69.8259022 235.30367431 69.8259022 235.30367431 57.28441429 231.93959999 C52.63955783 230.69371744 47.99428802 229.44944339 43.34780884 228.20962524 C35.62227271 226.14608679 27.90484984 224.06356869 20.21191406 221.88134766 C18.98510422 221.53726868 17.75829437 221.1931897 16.49430847 220.83868408 C14.30080698 220.22101905 12.11042951 219.59208403 9.92427063 218.94891357 C8.52618416 218.5572702 8.52618416 218.5572702 7.09985352 218.15771484 C6.31039841 217.92876526 5.5209433 217.69981567 4.70756531 217.46392822 C0.50502184 217.01525363 -2.58687896 219.95224291 -5.95263672 222.2043457 C-23.89719818 234.15308085 -43.11058155 241.84875842 -64.43798828 245.23486328 C-65.25783203 245.36634766 -66.07767578 245.49783203 -66.92236328 245.63330078 C-101.97216612 250.10517218 -139.40433763 240.29790677 -167.41162109 218.71386719 C-191.95352545 198.99160873 -209.75886844 172.93769086 -217.43798828 142.23486328 C-217.60766113 141.55649414 -217.77733398 140.878125 -217.95214844 140.17919922 C-226.49867942 104.42635796 -219.36059413 66.44180751 -200.43798828 35.23486328 C-195.25442794 27.25827342 -188.95904512 20.13298803 -182.43798828 13.23486328 C-181.68001953 12.41244141 -180.92205078 11.59001953 -180.14111328 10.74267578 C-133.54597365 -38.13653932 -52.31104028 -40.16437037 0 0 Z " fill="#92278F" transform="translate(221.43798828125,427.76513671875)"/>
<path d="M0 0 C33.60886326 -0.82475738 67.35836538 10.6965681 92.484375 33.125 C93.40734375 33.91648438 94.3303125 34.70796875 95.28125 35.5234375 C121.58063507 58.553562 137.45015766 92.33507337 140.07226562 127.01245117 C142.38900962 163.45581123 131.4177056 199.32399028 107.484375 227.125 C97.65028298 238.14997779 87.17385733 247.53906402 74.484375 255.125 C73.82002441 255.52654297 73.15567383 255.92808594 72.47119141 256.34179688 C61.11050432 263.08660701 49.18612342 267.57449131 36.484375 271.125 C35.80568359 271.31852051 35.12699219 271.51204102 34.42773438 271.71142578 C13.51753213 277.34813581 -12.89576023 276.05561357 -33.515625 270.125 C-34.63565918 269.81949219 -34.63565918 269.81949219 -35.77832031 269.5078125 C-68.28039682 260.47248621 -97.44295257 238.27462873 -114.515625 209.125 C-117.02957337 204.66196106 -119.42149434 200.14234661 -121.73828125 195.57421875 C-123.4321547 192.1289115 -123.4321547 192.1289115 -125.515625 189.125 C-179.635625 243.245 -233.755625 297.365 -289.515625 353.125 C-288.48912977 355.69123808 -287.45697752 358.2566181 -286.33203125 360.78125 C-278.26331746 379.08038907 -276.52706803 398.1976582 -283.515625 417.125 C-287.71775218 427.6988309 -293.47587542 435.31222701 -301.515625 443.125 C-302.14597656 443.74117188 -302.77632812 444.35734375 -303.42578125 444.9921875 C-316.37533359 456.80903668 -333.6712049 461.51805371 -350.91796875 461.33984375 C-366.20818866 460.42674701 -379.50279244 455.53165872 -391.515625 446.125 C-392.21429688 445.59132813 -392.91296875 445.05765625 -393.6328125 444.5078125 C-406.32232204 434.18832809 -415.06347526 417.59530559 -416.81713867 401.328125 C-416.95130473 398.50294982 -416.98371361 395.70312134 -416.953125 392.875 C-416.94482666 391.87355957 -416.93652832 390.87211914 -416.92797852 389.84033203 C-416.48493428 370.23601866 -408.34369073 353.49197164 -394.2109375 339.91015625 C-379.60414321 327.43451719 -361.47573007 322.15920376 -342.515625 323.125 C-332.0464853 324.10735895 -322.66912618 327.50768349 -313.31542969 332.21337891 C-312.60183289 332.5718692 -311.88823608 332.9303595 -311.15301514 333.29971313 C-310.61267639 333.5720578 -310.07233765 333.84440247 -309.515625 334.125 C-286.98627558 312.442779 -264.55494404 290.66471786 -242.25154543 268.75033762 C-239.60850326 266.15356236 -236.96465715 263.55760707 -234.3203125 260.9621582 C-233.5307902 260.18719413 -233.5307902 260.18719413 -232.72531796 259.39657422 C-224.24022913 251.07176695 -215.69201429 242.81484721 -207.11787319 234.58190165 C-198.29760473 226.10971002 -189.55067312 217.56664476 -180.86542511 208.95607442 C-175.99358018 204.13011664 -171.09481079 199.34102815 -166.11010742 194.63149452 C-142.08484576 173.74983811 -142.08484576 173.74983811 -131.10250092 145.35254329 C-131.0077827 139.26075865 -131.77033697 133.33397748 -132.81259823 127.34347969 C-134.58462417 116.16261926 -131.07802261 104.28198704 -127.453125 93.75 C-127.15784912 92.88133301 -126.86257324 92.01266602 -126.55834961 91.11767578 C-121.69609711 77.41800951 -114.7270714 64.39257283 -105.515625 53.125 C-105.06960938 52.57505371 -104.62359375 52.02510742 -104.1640625 51.45849609 C-80.56507275 22.5355364 -48.20567336 5.25112958 -11.23046875 0.72265625 C-7.48894402 0.37022876 -3.7524135 0.18645533 0 0 Z " fill="#92278F" transform="translate(822.515625,-0.125)"/>
<path d="M0 0 C17.86898621 -0.59247302 34.59229468 5.28421662 48.14453125 16.96875 C61.29611779 29.79900633 69.23943289 45.82486697 69.80517578 64.31689453 C69.91944312 82.89086604 64.48779248 99.76064406 51.44458008 113.26660156 C38.10124161 126.49730892 21.79135776 133.30416955 3.0078125 133.58984375 C-15.50143995 133.474115 -31.8520673 126.50809505 -45.13037109 113.69824219 C-57.84830246 100.4749349 -64.05828901 82.42043189 -63.83203125 64.26953125 C-62.51740504 45.19550009 -54.91519001 29.43987948 -41.14453125 16.28125 C-29.31606019 6.31754563 -15.35872279 0.89401521 0 0 Z " fill="#652C90" transform="translate(588.6171875,19.84765625)"/>
<path d="M0 0 C14.57032445 12.0907361 23.52776145 27.39989213 25.38842773 46.31176758 C26.63977235 64.08086111 21.86228052 81.87699902 10.33203125 95.66064453 C-0.85483658 108.44620874 -15.38498916 116.87157927 -32.40625 119.15234375 C-51.13929404 120.34515762 -69.54963553 116.83260311 -84.24291992 104.29321289 C-97.65053536 92.17082198 -106.75922914 76.51450658 -107.7265625 58.25 C-108.36756286 37.93864952 -103.24495452 21.41300689 -89.40625 6.15234375 C-65.58350879 -18.01503024 -27.01154123 -20.84080121 0 0 Z " fill="#652C90" transform="translate(237.40625,708.84765625)"/>
<path d="M0 0 C12.09751751 11.32416023 19.99318169 26.67930663 20.87890625 43.29296875 C21.48912628 61.8555229 17.68136488 78.42858501 5.12890625 92.77734375 C3.62552472 94.33603363 2.10577217 95.87918168 0.56640625 97.40234375 C-0.02398438 98.02625 -0.614375 98.65015625 -1.22265625 99.29296875 C-13.90812523 111.69902211 -31.56178659 115.90714874 -48.71777344 115.75219727 C-67.18606085 115.25982012 -82.88920344 107.39384602 -95.64453125 94.09765625 C-108.0614658 79.58744538 -113.34551097 61.73913333 -112.21875 42.7890625 C-110.11166651 24.74841432 -101.65365586 9.00002245 -87.8671875 -2.79296875 C-78.87560095 -9.67735671 -68.71722461 -14.94948545 -57.43359375 -16.59765625 C-56.43199219 -16.77941406 -56.43199219 -16.77941406 -55.41015625 -16.96484375 C-34.90536147 -20.09010987 -15.48287586 -13.2364273 0 0 Z " fill="#652C90" transform="translate(642.43359375,918.59765625)"/>
<path d="M0 0 C12.58312113 11.72657156 20.85022768 27.11421392 21.72265625 44.39453125 C22.30216308 63.01762713 18.6078298 79.19956808 5.97265625 93.62109375 C4.46927472 95.17978363 2.94952217 96.72293168 1.41015625 98.24609375 C0.81976563 98.87 0.229375 99.49390625 -0.37890625 100.13671875 C-12.81455403 112.29845358 -30.29672036 116.75693751 -47.16162109 116.59594727 C-65.66595234 116.07757466 -81.85956472 108.63446709 -94.58984375 95.24609375 C-100.97416934 87.84634106 -105.41725601 79.46935515 -108.58984375 70.24609375 C-108.82316406 69.57449219 -109.05648437 68.90289062 -109.296875 68.2109375 C-114.33607148 51.13567459 -111.06243085 33.15363663 -103.24609375 17.56640625 C-94.40333486 1.79681957 -80.2946216 -8.75176814 -63.3046875 -14.53125 C-61.42510043 -15.04318525 -59.50596519 -15.40261732 -57.58984375 -15.75390625 C-56.955625 -15.87507812 -56.32140625 -15.99625 -55.66796875 -16.12109375 C-35.51485178 -19.22740125 -15.48994011 -12.98601952 0 0 Z " fill="#652C90" transform="translate(230.58984375,249.75390625)"/>
<path d="M0 0 C11.91659894 10.11105364 19.87527979 25.98555796 21.22094727 41.55664062 C22.09634538 61.67406993 18.5470254 79.09137382 4.5625 94.4375 C-8.30996021 107.97091987 -24.10886179 115.57172806 -42.86425781 116.40039062 C-59.32454795 116.70417451 -75.95229184 111.48470321 -88.4375 100.5625 C-89.9821605 99.06587313 -91.50488071 97.54611977 -93 96 C-93.64582031 95.34 -94.29164063 94.68 -94.95703125 94 C-109.29442863 78.50686471 -111.66300396 60.93746704 -111.12304688 40.67919922 C-110.41799602 25.32755617 -101.78367612 11.47721286 -91 1 C-90.38769531 0.36707031 -89.77539062 -0.26585937 -89.14453125 -0.91796875 C-64.50010999 -24.72164216 -24.72647417 -20.70123419 0 0 Z " fill="#652C90" transform="translate(1073,240)"/>
<path d="M0 0 C12.12250927 11.70618067 18.96270631 27.79791477 19.29223633 44.55175781 C19.42108555 62.90112959 15.22655038 77.91342674 3 92 C2.35417969 92.7528125 1.70835938 93.505625 1.04296875 94.28125 C-8.88195626 105.03478656 -24.29066441 113.23513479 -39.07299805 114.12475586 C-49.40182611 114.4665303 -59.13691892 114.43645811 -69 111 C-69.84433594 110.73316406 -70.68867187 110.46632813 -71.55859375 110.19140625 C-78.61161032 107.71569841 -84.15335843 103.57522904 -90 99 C-91.03125 98.2575 -92.0625 97.515 -93.125 96.75 C-104.65872149 85.71774466 -112.68437885 70.57915982 -113.3359375 54.4609375 C-113.64547249 33.76607058 -109.93163415 16.62987613 -95.25512695 1.11035156 C-85.7482878 -8.49812188 -73.36658282 -15.54945982 -60 -18 C-59.36578125 -18.12117187 -58.7315625 -18.24234375 -58.078125 -18.3671875 C-36.5884473 -21.67950624 -15.938231 -14.3799477 0 0 Z " fill="#652C90" transform="translate(1075,734)"/>
</svg>
